<svg id="master-icon" width="256" height="256" viewBox="0 0 256 256" xmlns="http://www.w3.org/2000/svg">
      <rect width="256" height="256" fill="#0a0f0a"></rect>
      <rect x="8" y="8" width="240" height="240" fill="none" stroke="#22ff44" stroke-width="12"></rect>
      <rect x="28" y="28" width="200" height="200" fill="none" stroke="#1a3a1a" stroke-width="4"></rect>
      <line x1="40" y1="40" x2="56" y2="40" stroke="#22ff44" stroke-width="3"></line>
      <line x1="40" y1="40" x2="40" y2="56" stroke="#22ff44" stroke-width="3"></line>
      <line x1="216" y1="40" x2="200" y2="40" stroke="#22ff44" stroke-width="3"></line>
      <line x1="216" y1="40" x2="216" y2="56" stroke="#22ff44" stroke-width="3"></line>
      <line x1="40" y1="216" x2="56" y2="216" stroke="#22ff44" stroke-width="3"></line>
      <line x1="40" y1="216" x2="40" y2="200" stroke="#22ff44" stroke-width="3"></line>
      <line x1="216" y1="216" x2="200" y2="216" stroke="#22ff44" stroke-width="3"></line>
      <line x1="216" y1="216" x2="216" y2="200" stroke="#22ff44" stroke-width="3"></line>
      <g transform="translate(128,116)">
        <polygon points="-38,-72 -58,-20 -90,-20 -64,12 -74,64 -38,38 0,64 38,38 74,64 64,12 90,-20 58,-20 38,-72" fill="#22ff44"></polygon>
        <rect x="-18" y="68" width="36" height="44" fill="#22ff44"></rect>
        <rect x="-8" y="108" width="16" height="18" fill="#22ff44"></rect>
        <rect x="-60" y="-12" width="120" height="14" fill="#0a0f0a"></rect>
        <circle cx="-22" cy="-30" r="11" fill="#0a0f0a"></circle>
        <circle cx="22" cy="-30" r="11" fill="#0a0f0a"></circle>
        <rect x="-18" y="-8" width="36" height="10" fill="#0a0f0a"></rect>
        <circle cx="-22" cy="-30" r="4" fill="#22ff44"></circle>
        <circle cx="22" cy="-30" r="4" fill="#22ff44"></circle>
        <line x1="-72" y1="-50" x2="-50" y2="-50" stroke="#22ff44" stroke-width="4"></line>
        <line x1="-72" y1="-42" x2="-58" y2="-42" stroke="#22ff44" stroke-width="3"></line>
        <line x1="-72" y1="-34" x2="-62" y2="-34" stroke="#22ff44" stroke-width="2"></line>
        <line x1="72" y1="-50" x2="50" y2="-50" stroke="#22ff44" stroke-width="4"></line>
        <line x1="72" y1="-42" x2="58" y2="-42" stroke="#22ff44" stroke-width="3"></line>
        <line x1="72" y1="-34" x2="62" y2="-34" stroke="#22ff44" stroke-width="2"></line>
        <line x1="-26" y1="48" x2="-42" y2="80" stroke="#0a0f0a" stroke-width="5"></line>
        <line x1="26" y1="48" x2="42" y2="80" stroke="#0a0f0a" stroke-width="5"></line>
      </g>
      <text x="128" y="248" text-anchor="middle" font-family="'Courier New', monospace" font-size="18" font-weight="bold" fill="#22ff44" letter-spacing="5">SW</text>
    </svg>